<svg xmlns="http://www.w3.org/2000/svg" xmlns:svg="http://www.w3.org/2000/svg" id="svg7384" width="16" height="16" version="1.1"><metadata id="metadata90"/><title id="title9167">Gnome Symbolic Icon Theme</title><g id="layer10" transform="translate(-142,-338)"><g id="layer1-6" transform="translate(142,338)"><path id="path3520" d="M 2,4 C 1.5,4 1,4.5 1,5 l 0,4 c 0,0.5 0.5,1 1,1 l 1,0 0,-2 10,0 0,2 1,0 c 0.5,0 1,-0.5 1,-1 L 15,5 C 15,4.5 14.5,4 14,4 L 2,4 z" style="fill:#bebebe;fill-opacity:1;stroke:none"/><path id="path4804" d="M 4,1 4,3 12,3 12,1 4,1 z" style="fill:#bebebe;fill-opacity:1;stroke:none"/><rect style="opacity:1;fill:#bebebe;fill-opacity:1;stroke:none;stroke-width:2;stroke-linecap:butt;stroke-linejoin:round;stroke-miterlimit:4;stroke-dasharray:none;stroke-dashoffset:0;stroke-opacity:1" id="rect4146" width="8" height="5" x="4" y="9"/></g></g></svg>