<svg xmlns="http://www.w3.org/2000/svg" xmlns:svg="http://www.w3.org/2000/svg" id="svg7384" width="16" height="16" version="1.1"><metadata id="metadata90"/><title id="title9167">Gnome Symbolic Icon Theme</title><g id="layer13" transform="translate(-482,-176)"><path style="display:inline;fill:#bebebe;fill-opacity:1;stroke:#4b4b4b;stroke-width:0;stroke-linejoin:miter;stroke-miterlimit:4;stroke-dasharray:none;stroke-dashoffset:0;stroke-opacity:1" id="rect3793-0" d="m 2,1 0,15 2,0 1,0 6,0 1,0 2,0 L 14,1 12,1 11,1 5,1 4,1 Z m 3,1 6,0 0,6 -6,0 z M 3,3 4,3 4,4 3,4 Z m 9,0 1,0 0,1 -1,0 z M 3,5 4,5 4,6 3,6 Z m 9,0 1,0 0,1 -1,0 z M 3,7 4,7 4,8 3,8 Z m 9,0 1,0 0,1 -1,0 z m -9,2 1,0 0,1 -1,0 z m 2,0 6,0 0,6 -6,0 z m 7,0 1,0 0,1 -1,0 z m -9,2 1,0 0,1 -1,0 z m 9,0 1,0 0,1 -1,0 z m -9,2 1,0 0,1 -1,0 z m 9,0 1,0 0,1 -1,0 z" transform="translate(482,176)"/></g></svg>