<svg xmlns="http://www.w3.org/2000/svg" xmlns:svg="http://www.w3.org/2000/svg" id="svg7384" width="16" height="16" version="1.1"><metadata id="metadata90"/><title id="title9167">Gnome Symbolic Icon Theme</title><g id="layer13" transform="translate(-482,-176)"><path style="display:inline;opacity:1;fill:#bebebe;fill-opacity:1;stroke:#4b4b4b;stroke-width:0;stroke-linejoin:miter;stroke-miterlimit:4;stroke-dasharray:none;stroke-dashoffset:0;stroke-opacity:1" id="rect4067-4-5" d="m 486,178 0,0.97461 0,1.02539 0,1 0,6.40234 A 2.5,2 0 0 0 484.5,187 a 2.5,2 0 0 0 -2.5,2 2.5,2 0 0 0 2.5,2 2.5,2 0 0 0 2.5,-2 l 0,-8 7,0 0,5.40234 A 2.5,2 0 0 0 492.5,186 a 2.5,2 0 0 0 -2.5,2 2.5,2 0 0 0 2.5,2 2.5,2 0 0 0 2.5,-2 l 0,-7 0,-1 0,-2 -0.90039,0 L 486,178 Z"/></g></svg>