<svg xmlns="http://www.w3.org/2000/svg" xmlns:svg="http://www.w3.org/2000/svg" id="svg2" width="16" height="16" version="1.0" style="display:inline"><metadata id="metadata7"/><g id="layer1" transform="translate(0,-6)" style="display:inline"><path style="color:#000;fill:#bebebe;fill-opacity:1;fill-rule:nonzero;stroke:none;stroke-width:8;marker:none;visibility:visible;display:inline;overflow:visible;enable-background:accumulate;opacity:.45" id="path3000" d="M 6.5 1 C 6.223 1 6 1.223 6 1.5 L 6 2 L 4 2 C 3.446 2 3 2.446 3 3 L 3 4 L 3 14 C 3 14.554 3.446 15 4 15 L 12 15 C 12.554 15 13 14.554 13 14 L 13 4 L 13 3 C 13 2.446 12.554 2 12 2 L 10 2 L 10 1.5 C 10 1.223 9.777 1 9.5 1 L 6.5 1 z M 7 4 L 11 10 L 8.53125 10 L 9 14 L 5 8 L 7.5 8 L 7 4 z" transform="translate(0,6)"/></g></svg>