<svg xmlns="http://www.w3.org/2000/svg" xmlns:svg="http://www.w3.org/2000/svg" id="svg4148" width="16" height="16" version="1.1" viewBox="0 0 16 16"><metadata id="metadata4153"/><g id="layer1" transform="translate(0,-1036.3622)"><path style="opacity:.35;fill:#bebebe;fill-opacity:1;stroke:none;stroke-width:2;stroke-linecap:butt;stroke-linejoin:round;stroke-miterlimit:4;stroke-dasharray:none;stroke-dashoffset:0;stroke-opacity:1" id="path4700" d="M 7.8339844 1.9882812 A 11.313713 12.02742 0 0 0 0 5.5097656 L 6.6230469 12.550781 A 2 2 0 0 1 8 12 A 2 2 0 0 1 9.375 12.550781 L 16 5.5097656 A 11.313713 12.02742 0 0 0 7.8339844 1.9882812 z" transform="translate(0,1036.3622)"/><path style="opacity:1;fill:#bebebe;fill-opacity:1;stroke:none;stroke-width:2;stroke-linecap:butt;stroke-linejoin:round;stroke-miterlimit:4;stroke-dasharray:none;stroke-dashoffset:0;stroke-opacity:1" id="rect4229" d="m 5,1049.3622 c -0.554,0 -1,0.446 -1,1 0,0.554 0.446,1 1,1 0.554,0 1,-0.446 1,-1 0,-0.554 -0.446,-1 -1,-1 z m 3,0 c -0.554,0 -1,0.446 -1,1 0,0.554 0.446,1 1,1 0.554,0 1,-0.446 1,-1 0,-0.554 -0.446,-1 -1,-1 z m 3,0 c -0.554,0 -1,0.446 -1,1 0,0.554 0.446,1 1,1 0.554,0 1,-0.446 1,-1 0,-0.554 -0.446,-1 -1,-1 z"/></g></svg>