<svg xmlns="http://www.w3.org/2000/svg" xmlns:svg="http://www.w3.org/2000/svg" id="svg4149" width="16" height="16" version="1.1" viewBox="0 0 16 16"><metadata id="metadata4154"/><g id="layer1" transform="translate(0,-1036.3622)"><path style="opacity:1;fill:#bebebe;fill-opacity:1;stroke:none;stroke-width:2;stroke-linecap:butt;stroke-linejoin:round;stroke-miterlimit:4;stroke-dasharray:none;stroke-dashoffset:0;stroke-opacity:1" id="rect4699" d="M 3,2 C 1.892,2 1,2.8919904 1,4 l 0,7 c 0,1.10801 0.892,2 2,2 l 1,0 1,1 6,0 1,-1 1,0 c 1.108,0 2,-0.89199 2,-2 L 15,4 C 15,2.8919904 14.108,2 13,2 Z m 0,2 10,0 0,7 -2,0 -1,1 -4,0 -1,-1 -2,0 z" transform="translate(0,1036.3622)"/><text style="font-style:normal;font-weight:700;font-size:45.25266647px;line-height:125%;font-family:Sans;-inkscape-font-specification:'Sans Bold';letter-spacing:0;word-spacing:0;fill:#bebebe;fill-opacity:1;stroke:none;stroke-width:1px;stroke-linecap:butt;stroke-linejoin:miter;stroke-opacity:1" id="text4135" x="5.989" y="1047.579" xml:space="preserve"><tspan id="tspan4137" x="5.989" y="1047.579" style="font-style:normal;font-variant:normal;font-weight:700;font-stretch:normal;font-size:9.05053234px;font-family:'Droid Sans';-inkscape-font-specification:'Droid Sans Bold';fill:#bebebe;fill-opacity:1">?</tspan></text></g></svg>