<svg xmlns="http://www.w3.org/2000/svg" xmlns:svg="http://www.w3.org/2000/svg" id="svg7384" width="16" height="16" version="1.1"><metadata id="metadata90"/><title id="title9167">Gnome Symbolic Icon Theme</title><g id="layer9" transform="translate(-381.00015,-337)" style="display:inline"><path id="path9555" d="m 389.00015,342.01754 c -1.64587,0 -2.98246,1.33658 -2.98246,2.98246 0,1.64587 1.33659,2.98246 2.98246,2.98246 1.64587,0 2.98246,-1.33659 2.98246,-2.98246 0,-1.64588 -1.33659,-2.98246 -2.98246,-2.98246 z" style="font-size:medium;font-style:normal;font-variant:normal;font-weight:400;font-stretch:normal;text-indent:0;text-align:start;text-decoration:none;line-height:normal;letter-spacing:normal;word-spacing:normal;text-transform:none;direction:ltr;text-anchor:start;color:#bebebe;fill:#bebebe;fill-opacity:1;fill-rule:nonzero;stroke:none;stroke-width:1.78125;marker:none;visibility:visible;display:inline;overflow:visible;font-family:Andale Mono"/><path id="path9557" d="m 388.96875,338.0625 c -3.85777,0 -7,3.14223 -7,7 0,3.85777 3.14223,7 7,7 3.85776,0 7,-3.14223 7,-7 0,-3.85777 -3.14224,-7 -7,-7 z m 0,1 c 3.32116,0 6.03125,2.67883 6.03125,6 0,3.32117 -2.71009,6 -6.03125,6 -3.32117,0 -6,-2.67883 -6,-6 0,-3.32117 2.67883,-6 6,-6 z" style="font-size:medium;font-style:normal;font-variant:normal;font-weight:400;font-stretch:normal;text-indent:0;text-align:start;text-decoration:none;line-height:normal;letter-spacing:normal;word-spacing:normal;text-transform:none;direction:ltr;block-progression:tb;writing-mode:lr-tb;text-anchor:start;baseline-shift:baseline;color:#bebebe;fill:#bebebe;fill-opacity:1;stroke:none;stroke-width:.99115044;marker:none;visibility:visible;display:inline;overflow:visible;enable-background:accumulate;font-family:Andale Mono;-inkscape-font-specification:Sans"/></g></svg>