<svg xmlns="http://www.w3.org/2000/svg" xmlns:osb="http://www.openswatchbook.org/uri/2009/osb" xmlns:svg="http://www.w3.org/2000/svg" id="svg7384" width="16" height="16" version="1.1" style="enable-background:new"><metadata id="metadata90"/><title id="title8473">Paper Symbolic Icon Theme</title><defs id="defs7386"><linearGradient id="linearGradient5606" osb:paint="solid"><stop id="stop5608" offset="0" style="stop-color:#000;stop-opacity:1"/></linearGradient><filter id="filter7554" style="color-interpolation-filters:sRGB"><feBlend id="feBlend7556" in2="BackgroundImage" mode="darken"/></filter></defs><g id="layer9" transform="translate(-545.00041,395.01034)" style="display:inline"><path id="path7299" d="m 553.0002,-395 -6,1.99023 0,7 c 0,2.07164 1.57494,3.52182 2.9375,4.46875 1.36256,0.94693 3.0625,1.54102 3.0625,1.54102 0,0 1.70434,-0.61672 3.0625,-1.57227 1.35816,-0.95555 2.9375,-2.39317 2.9375,-4.4375 l 0,-7 -6,-1.99023 z m 0,2.10742 0,4.89258 4,0 0,1.99023 c 0,1.01427 -0.90506,1.97055 -2.08789,2.80274 -0.76991,0.54167 -1.42165,0.77276 -1.91211,0.97656 l 0,-5.76953 -4,0 0,-3.56641 4,-1.32617 z" style="color:#bebebe;font-style:normal;font-variant:normal;font-weight:400;font-stretch:normal;font-size:medium;line-height:normal;font-family:Sans;-inkscape-font-specification:Sans;text-indent:0;text-align:start;text-decoration:none;text-decoration-line:none;letter-spacing:normal;word-spacing:normal;text-transform:none;direction:ltr;block-progression:tb;writing-mode:lr-tb;baseline-shift:baseline;text-anchor:start;display:inline;overflow:visible;visibility:visible;fill:#bebebe;fill-opacity:1;stroke:none;stroke-width:2;marker:none;enable-background:accumulate"/></g></svg>