<svg xmlns="http://www.w3.org/2000/svg" xmlns:svg="http://www.w3.org/2000/svg" id="svg2" width="16" height="16" version="1.0"><metadata id="metadata7"/><g id="layer1"><path style="color:#000;fill:#000;fill-opacity:1;fill-rule:nonzero;stroke:none;stroke-width:2;marker:none;visibility:visible;display:inline;overflow:visible;enable-background:accumulate" id="path3085" d="M 7,6 A 3,3 0 1 1 1,6 3,3 0 1 1 7,6 z" transform="translate(-13,0)"/><path id="path3087" d="M 7,6 A 3,3 0 1 1 1,6 3,3 0 1 1 7,6 z" transform="matrix(1.5,0,0,1.5,-18.5,-4.5)" style="color:#000;fill:#000;fill-opacity:1;fill-rule:nonzero;stroke:none;stroke-width:2;marker:none;visibility:visible;display:inline;overflow:visible;enable-background:accumulate"/><path style="color:#000;fill:#000;fill-opacity:1;fill-rule:nonzero;stroke:none;stroke-width:2;marker:none;visibility:visible;display:inline;overflow:visible;enable-background:accumulate" id="path3089" d="M 7,6 A 3,3 0 1 1 1,6 3,3 0 1 1 7,6 z" transform="matrix(0.83333333,0,0,0.83333333,-19.833333,1.5)"/><rect style="color:#000;fill:#000;fill-opacity:1;fill-rule:nonzero;stroke:none;stroke-width:2;marker:none;visibility:visible;display:inline;overflow:visible;enable-background:accumulate" id="rect3091" width="7.5" height="4" x="-16.5" y="5"/><path id="path3094" d="M 7,6 A 3,3 0 1 1 1,6 3,3 0 1 1 7,6 z" transform="translate(-12,-20)" style="color:#000;fill:#000;fill-opacity:1;fill-rule:nonzero;stroke:none;stroke-width:2;marker:none;visibility:visible;display:inline;overflow:visible;enable-background:accumulate"/><path style="color:#000;fill:#000;fill-opacity:1;fill-rule:nonzero;stroke:none;stroke-width:2;marker:none;visibility:visible;display:inline;overflow:visible;enable-background:accumulate" id="path3096" d="M 7,6 A 3,3 0 1 1 1,6 3,3 0 1 1 7,6 z" transform="matrix(1.5,0,0,1.5,-18.5,-24.5)"/><rect id="rect3100" width="5" height="4" x="-13" y="-15" style="color:#000;fill:#000;fill-opacity:1;fill-rule:nonzero;stroke:none;stroke-width:2;marker:none;visibility:visible;display:inline;overflow:visible;enable-background:accumulate"/><path id="path3102" d="M 7,6 A 3,3 0 1 1 1,6 3,3 0 1 1 7,6 z" transform="translate(-12,20)" style="color:#000;fill:#000;fill-opacity:1;fill-rule:nonzero;stroke:none;stroke-width:2;marker:none;visibility:visible;display:inline;overflow:visible;enable-background:accumulate"/><path style="color:#000;fill:#000;fill-opacity:1;fill-rule:nonzero;stroke:none;stroke-width:2;marker:none;visibility:visible;display:inline;overflow:visible;enable-background:accumulate" id="path3104" d="M 7,6 A 3,3 0 1 1 1,6 3,3 0 1 1 7,6 z" transform="matrix(1.5,0,0,1.5,-18.5,15.5)"/><path id="path3106" d="M 7,6 A 3,3 0 1 1 1,6 3,3 0 1 1 7,6 z" transform="matrix(0.83333333,0,0,0.83333333,-19.833333,21.5)" style="color:#000;fill:#000;fill-opacity:1;fill-rule:nonzero;stroke:none;stroke-width:2;marker:none;visibility:visible;display:inline;overflow:visible;enable-background:accumulate"/><rect id="rect3108" width="8.5" height="4" x="-16.5" y="25" style="color:#000;fill:#000;fill-opacity:1;fill-rule:nonzero;stroke:none;stroke-width:2;marker:none;visibility:visible;display:inline;overflow:visible;enable-background:accumulate"/><path id="path3110" d="M 7,6 A 3,3 0 1 1 1,6 3,3 0 1 1 7,6 z" transform="matrix(1.1666667,0,0,1.1666667,-33.166667,-1.5)" style="color:#000;fill:#000;fill-opacity:1;fill-rule:nonzero;stroke:none;stroke-width:2;marker:none;visibility:visible;display:inline;overflow:visible;enable-background:accumulate"/><path style="color:#000;fill:#000;fill-opacity:1;fill-rule:nonzero;stroke:none;stroke-width:2;marker:none;visibility:visible;display:inline;overflow:visible;enable-background:accumulate" id="path3112" d="M 7,6 A 3,3 0 1 1 1,6 3,3 0 1 1 7,6 z" transform="matrix(1.5,0,0,1.5,-38.5,-4.5)"/><path id="path3114" d="M 7,6 A 3,3 0 1 1 1,6 3,3 0 1 1 7,6 z" transform="matrix(0.83333333,0,0,0.83333333,-39.833333,1.5)" style="color:#000;fill:#000;fill-opacity:1;fill-rule:nonzero;stroke:none;stroke-width:2;marker:none;visibility:visible;display:inline;overflow:visible;enable-background:accumulate"/><rect id="rect3116" width="8" height="4" x="-36.5" y="5" style="color:#000;fill:#000;fill-opacity:1;fill-rule:nonzero;stroke:none;stroke-width:2;marker:none;visibility:visible;display:inline;overflow:visible;enable-background:accumulate"/><path style="color:#000;fill:#bebebe;fill-opacity:1;fill-rule:nonzero;stroke:none;stroke-width:2;marker:none;visibility:visible;display:inline;overflow:visible;enable-background:accumulate" id="path3126" d="M 7.5 0 C 5.164201 0 3.253781 1.7851525 3.03125 4.0625 C 1.877066 4.2838766 1 5.2812563 1 6.5 C 1 7.8807119 2.119288 9 3.5 9 L 4.71875 9 L 5.03125 7.75 A 0.99228672 0.99228672 0 0 1 5.90625 7 A 0.99228672 0.99228672 0 0 1 6 7 L 9 7 A 0.99228672 0.99228672 0 0 1 9.875 8.4375 L 9.59375 9 L 10.09375 9 L 11.5 9 C 13.432997 9 15 7.4329967 15 5.5 C 15 3.5670033 13.432997 2 11.5 2 C 11.415681 2 11.332827 2.0253863 11.25 2.03125 C 10.446562 0.80268909 9.077518 0 7.5 0 z"/><path style="fill:#bebebe;fill-opacity:1;stroke:none" id="path3134" d="m 6,8 -1,4 2,0 -1,4 4,-6 -2,0 1,-2 z"/><path style="color:#000;fill:#000;fill-opacity:1;fill-rule:nonzero;stroke:none;stroke-width:2;marker:none;visibility:visible;display:inline;overflow:visible;enable-background:accumulate" id="path3901" d="m -32.5,20 c -2.335799,0 -4.246219,1.785153 -4.46875,4.0625 C -38.122934,24.283877 -39,25.281256 -39,26.5 c 0,1.380712 1.119288,2.5 2.5,2.5 l 4,0 4,0 c 1.932997,0 3.5,-1.567003 3.5,-3.5 0,-1.932997 -1.567003,-3.5 -3.5,-3.5 -0.08432,0 -0.167173,0.02539 -0.25,0.03125 C -29.553438,20.802689 -30.922482,20 -32.5,20 z"/></g></svg>