<svg xmlns="http://www.w3.org/2000/svg" xmlns:svg="http://www.w3.org/2000/svg" id="svg3036" width="22" height="22" version="1.1" viewBox="0 0 22 22"><metadata id="metadata3088"/><path style="fill:#ececec;fill-opacity:1" id="path3334" d="m 11.364036,7.997252 -0.736008,0.753273 c 0.906161,0.954682 0.906161,2.416918 0,3.371601 l 0.736008,0.753273 c 1.436403,-1.51863 1.436403,-3.359517 0,-4.878147 z"/><path style="opacity:.4;fill:#ececec;fill-opacity:1" id="path3336" d="m 12.468049,7.62263 c 1.4918,1.522658 1.4918,4.479355 0,6.002013 l 1.104011,1.123868 c 2.136798,-2.179255 2.136798,-6.070494 0,-8.2497488 z"/><path style="opacity:.4;fill:#ececec;fill-opacity:1" id="path3338" d="m 14.308068,6.1241401 c 2.623513,2.5297079 2.583942,6.4692839 0,8.9989929 L 15.41208,16.247 c 3.430747,-3.371601 3.470317,-7.875126 0,-11.2467272 z"/><path style="fill:#ececec;fill-opacity:1" id="path3342" d="m 9,6.0002735 -2,2.0000005 0,5 2,2 3.2e-6,-3.003022 L 10.5,10.500273 9,9.000273 Z"/><path style="fill:#ececec;fill-opacity:1" id="path3344" d="M 4.7499995,8.000273 C 4.3588707,8.000273 4,8.416196 4,8.836589 l 0,3.32737 c 0,0.483005 0.3266127,0.836315 0.7499995,0.836315 L 7,13.000274 7,8.000273 Z"/></svg>