<svg xmlns="http://www.w3.org/2000/svg" xmlns:svg="http://www.w3.org/2000/svg" id="svg7384" width="22" height="22" version="1.1"><metadata id="metadata90"/><title id="title9167">Gnome Symbolic Icon Theme</title><defs id="defs7386"><clipPath id="clipPath6810-7-87" clipPathUnits="userSpaceOnUse"><rect id="rect6812-2-4" width="14" height="11" x="21" y="281" style="color:#bebebe;display:inline;overflow:visible;visibility:visible;fill:none;stroke:#fff;stroke-width:2;stroke-linecap:round;stroke-linejoin:round;stroke-miterlimit:4;stroke-dasharray:none;stroke-dashoffset:0;stroke-opacity:1;marker:none"/></clipPath></defs><g id="layer9" transform="translate(-121,-191.0011)" style="display:inline"><rect id="rect12235" width="5" height="10.013" x="127" y="194.987" rx="2.5" ry="2.5" style="color:#bebebe;display:inline;overflow:visible;visibility:visible;fill:#ececec;fill-opacity:1;fill-rule:nonzero;stroke:none;stroke-width:2;marker:none"/><path id="rect12237" d="m 27.96875,273.625 c -2.502477,0 -4.53125,2.02877 -4.53125,4.53125 l 0,5.8125 c 0,2.50248 2.028773,4.53125 4.53125,4.53125 2.502477,0 4.53125,-2.02877 4.53125,-4.53125 l 0,-5.8125 c 0,-2.50248 -2.028773,-4.53125 -4.53125,-4.53125 z m 0,1 c 1.964148,0 3.53125,1.5671 3.53125,3.53125 l 0,5.8125 c 0,1.96415 -1.567102,3.53125 -3.53125,3.53125 -1.964148,0 -3.53125,-1.5671 -3.53125,-3.53125 l 0,-5.8125 c 0,-1.96415 1.567102,-3.53125 3.53125,-3.53125 z" clip-path="url(#clipPath6810-7-87)" transform="matrix(0.993968,0,0,1,101.70687,-81.486204)" style="color:#bebebe;font-style:normal;font-variant:normal;font-weight:400;font-stretch:normal;font-size:medium;line-height:normal;font-family:Sans;-inkscape-font-specification:Sans;text-indent:0;text-align:start;text-decoration:none;text-decoration-line:none;letter-spacing:normal;word-spacing:normal;text-transform:none;direction:ltr;block-progression:tb;writing-mode:lr-tb;baseline-shift:baseline;text-anchor:start;display:inline;overflow:visible;visibility:visible;fill:#ececec;fill-opacity:1;stroke:none;stroke-width:1.00302994;marker:none;enable-background:accumulate"/><circle id="path12239" cx="125.5" cy="199.5" r=".5" style="color:#bebebe;display:inline;overflow:visible;visibility:visible;fill:#ececec;fill-opacity:1;stroke:none;stroke-width:2;marker:none"/><circle id="path12241" cx="133.5" cy="199.5" r=".5" style="color:#bebebe;display:inline;overflow:visible;visibility:visible;fill:#ececec;fill-opacity:1;stroke:none;stroke-width:2;marker:none"/><path id="path12243" d="m 125.90622,207.99993 a 1.001098,1.001098 0 1 0 0.0937,2 l 7,0 a 1.0001,1.0001 0 1 0 0,-2 l -7,0 a 1.0001,1.0001 0 0 0 -0.0937,0 z" style="color:#bebebe;font-style:normal;font-variant:normal;font-weight:400;font-stretch:normal;font-size:medium;line-height:normal;font-family:Sans;-inkscape-font-specification:Sans;text-indent:0;text-align:start;text-decoration:none;text-decoration-line:none;letter-spacing:normal;word-spacing:normal;text-transform:none;direction:ltr;block-progression:tb;writing-mode:lr-tb;baseline-shift:baseline;text-anchor:start;display:inline;overflow:visible;visibility:visible;fill:#ececec;fill-opacity:1;stroke:none;stroke-width:2;marker:none;enable-background:accumulate"/><rect id="rect12245" width="9" height="1" x="125" y="209" style="color:#bebebe;display:inline;overflow:visible;visibility:visible;fill:#ececec;fill-opacity:1;stroke:none;stroke-width:1;marker:none"/><rect id="rect12247" width="3" height="4" x="128" y="206" style="color:#bebebe;display:inline;overflow:visible;visibility:visible;fill:#ececec;fill-opacity:1;stroke:none;stroke-width:1;marker:none"/><path id="path12249" d="m 137.00017,194.99186 c -1.09865,0 -2.00806,0.90942 -2.00806,2.00807 0,1.09865 0.90941,2.00806 2.00806,2.00806 1.09865,0 2.00806,-0.90941 2.00806,-2.00806 0,-1.09865 -0.90941,-2.00807 -2.00806,-2.00807 z m 0,1.01613 c 0.55821,0 0.99193,0.43373 0.99193,0.99194 0,0.55821 -0.43372,0.99193 -0.99193,0.99193 -0.55821,0 -0.99193,-0.43372 -0.99193,-0.99193 0,-0.55821 0.43372,-0.99194 0.99193,-0.99194 z" style="color:#000;font-style:normal;font-variant:normal;font-weight:400;font-stretch:normal;font-size:medium;line-height:normal;font-family:Sans;-inkscape-font-specification:Sans;text-indent:0;text-align:start;text-decoration:none;text-decoration-line:none;letter-spacing:normal;word-spacing:normal;text-transform:none;direction:ltr;block-progression:tb;writing-mode:lr-tb;baseline-shift:baseline;text-anchor:start;display:inline;overflow:visible;visibility:visible;opacity:.5;fill:#ececec;fill-opacity:1;stroke:none;stroke-width:1.29166746;marker:none;enable-background:accumulate"/><path id="path12253" d="m 137.00016,199.99186 c -1.09865,0 -2.00806,0.90941 -2.00806,2.00806 0,1.09865 0.90941,2.00807 2.00806,2.00807 1.09865,0 2.00807,-0.90942 2.00807,-2.00807 0,-1.09865 -0.90942,-2.00806 -2.00807,-2.00806 z m 0,1.01613 c 0.55821,0 0.99194,0.43373 0.99194,0.99193 0,0.55821 -0.43373,0.99194 -0.99194,0.99194 -0.55821,0 -0.99193,-0.43373 -0.99193,-0.99194 0,-0.5582 0.43372,-0.99193 0.99193,-0.99193 z" style="color:#000;font-style:normal;font-variant:normal;font-weight:400;font-stretch:normal;font-size:medium;line-height:normal;font-family:Sans;-inkscape-font-specification:Sans;text-indent:0;text-align:start;text-decoration:none;text-decoration-line:none;letter-spacing:normal;word-spacing:normal;text-transform:none;direction:ltr;block-progression:tb;writing-mode:lr-tb;baseline-shift:baseline;text-anchor:start;display:inline;overflow:visible;visibility:visible;opacity:.5;fill:#ececec;fill-opacity:1;stroke:none;stroke-width:1.29166651;marker:none;enable-background:accumulate"/><path id="path3761-2-3-5-4-8-9-8-0-9-0-4" d="m 135.00017,204.99993 1.375,0 1.125,1.09375 1.09375,-1.09375 1.40625,0 0,1.46875 -1.09375,1.0625 1.09375,1.0625 0,1.40625 -1.4375,0 -1.0625,-1.0625 -1.0625,1.0625 -1.4375,0 0,-1.40625 1.0625,-1.0625 -1.0625,-1.0625 0,-1.46875 z" style="color:#bebebe;display:inline;overflow:visible;visibility:visible;fill:#ececec;fill-opacity:1;stroke:none;stroke-width:2;marker:none"/></g></svg>