<svg xmlns="http://www.w3.org/2000/svg" xmlns:svg="http://www.w3.org/2000/svg" id="svg7384" width="22" height="22" version="1.1"><metadata id="metadata90"/><title id="title9167">Gnome Symbolic Icon Theme</title><defs id="defs7386"><clipPath id="clipPath6810-7-87" clipPathUnits="userSpaceOnUse"><rect id="rect6812-2-4" width="14" height="11" x="21" y="281" style="color:#bebebe;display:inline;overflow:visible;visibility:visible;fill:none;stroke:#fff;stroke-width:2;stroke-linecap:round;stroke-linejoin:round;stroke-miterlimit:4;stroke-dasharray:none;stroke-dashoffset:0;stroke-opacity:1;marker:none"/></clipPath></defs><g id="layer9" transform="translate(-181,-191.00195)" style="display:inline"><rect id="rect12327" width="5" height="10.013" x="187" y="194.987" rx="2.5" ry="2.5" style="color:#bebebe;display:inline;overflow:visible;visibility:visible;fill:#ececec;fill-opacity:1;fill-rule:nonzero;stroke:none;stroke-width:2;marker:none"/><path id="rect12329" d="m 27.96875,273.625 c -2.502477,0 -4.53125,2.02877 -4.53125,4.53125 l 0,5.8125 c 0,2.50248 2.028773,4.53125 4.53125,4.53125 2.502477,0 4.53125,-2.02877 4.53125,-4.53125 l 0,-5.8125 c 0,-2.50248 -2.028773,-4.53125 -4.53125,-4.53125 z m 0,1 c 1.964148,0 3.53125,1.5671 3.53125,3.53125 l 0,5.8125 c 0,1.96415 -1.567102,3.53125 -3.53125,3.53125 -1.964148,0 -3.53125,-1.5671 -3.53125,-3.53125 l 0,-5.8125 c 0,-1.96415 1.567102,-3.53125 3.53125,-3.53125 z" clip-path="url(#clipPath6810-7-87)" transform="matrix(0.993968,0,0,1,161.70735,-81.486136)" style="color:#bebebe;font-style:normal;font-variant:normal;font-weight:400;font-stretch:normal;font-size:medium;line-height:normal;font-family:Sans;-inkscape-font-specification:Sans;text-indent:0;text-align:start;text-decoration:none;text-decoration-line:none;letter-spacing:normal;word-spacing:normal;text-transform:none;direction:ltr;block-progression:tb;writing-mode:lr-tb;baseline-shift:baseline;text-anchor:start;display:inline;overflow:visible;visibility:visible;fill:#ececec;fill-opacity:1;stroke:none;stroke-width:1.00302994;marker:none;enable-background:accumulate"/><circle id="path12331" cx="185.5" cy="199.5" r=".5" style="color:#bebebe;display:inline;overflow:visible;visibility:visible;fill:#ececec;fill-opacity:1;stroke:none;stroke-width:2;marker:none"/><circle id="path12333" cx="193.5" cy="199.5" r=".5" style="color:#bebebe;display:inline;overflow:visible;visibility:visible;fill:#ececec;fill-opacity:1;stroke:none;stroke-width:2;marker:none"/><path id="path12335" d="m 185.87545,208 a 1.0019512,1.0019512 0 1 0 0.125,2 l 7.03125,0 a 1.0001,1.0001 0 1 0 0,-2 l -7.03125,0 a 1.0001,1.0001 0 0 0 -0.125,0 z" style="color:#bebebe;font-style:normal;font-variant:normal;font-weight:400;font-stretch:normal;font-size:medium;line-height:normal;font-family:Sans;-inkscape-font-specification:Sans;text-indent:0;text-align:start;text-decoration:none;text-decoration-line:none;letter-spacing:normal;word-spacing:normal;text-transform:none;direction:ltr;block-progression:tb;writing-mode:lr-tb;baseline-shift:baseline;text-anchor:start;display:inline;overflow:visible;visibility:visible;fill:#ececec;fill-opacity:1;stroke:none;stroke-width:2;marker:none;enable-background:accumulate"/><rect id="rect12337" width="9" height="1" x="185" y="209" style="color:#bebebe;display:inline;overflow:visible;visibility:visible;fill:#ececec;fill-opacity:1;stroke:none;stroke-width:1;marker:none"/><rect id="rect12339" width="3" height="4" x="188" y="206" style="color:#bebebe;display:inline;overflow:visible;visibility:visible;fill:#ececec;fill-opacity:1;stroke:none;stroke-width:1;marker:none"/><ellipse id="path12343" cx="197.001" cy="207" rx="2" ry="2" style="color:#000;display:inline;overflow:visible;visibility:visible;fill:#ececec;fill-opacity:1;stroke:none;stroke-width:1.2784189;marker:none;enable-background:accumulate"/><ellipse id="path12345" cx="197.001" cy="202" rx="2" ry="2" style="color:#000;display:inline;overflow:visible;visibility:visible;fill:#ececec;fill-opacity:1;stroke:none;stroke-width:1.2784189;marker:none;enable-background:accumulate"/><ellipse id="path12347" cx="197.001" cy="197" rx="2" ry="2" style="color:#000;display:inline;overflow:visible;visibility:visible;fill:#ececec;fill-opacity:1;stroke:none;stroke-width:1.2784189;marker:none;enable-background:accumulate"/></g></svg>