<svg xmlns="http://www.w3.org/2000/svg" xmlns:svg="http://www.w3.org/2000/svg" id="svg7384" width="22" height="22" version="1.1"><metadata id="metadata90"/><title id="title9167">Gnome Symbolic Icon Theme</title><g id="layer9" transform="translate(-321.00021,-171)" style="display:inline"><path style="color:#000;font-style:normal;font-variant:normal;font-weight:400;font-stretch:normal;font-size:medium;line-height:normal;font-family:Sans;-inkscape-font-specification:Sans;text-indent:0;text-align:start;text-decoration:none;text-decoration-line:none;letter-spacing:normal;word-spacing:normal;text-transform:none;direction:ltr;block-progression:tb;writing-mode:lr-tb;baseline-shift:baseline;text-anchor:start;display:inline;overflow:visible;visibility:visible;fill:#ececec;fill-opacity:1;stroke:none;stroke-width:1.99999976;marker:none;enable-background:accumulate" id="path16189" d="m 329.00046,181 c -0.30943,4e-5 -0.61463,0.0905 -0.8125,0.28125 L 324.59421,185 l 3.65625,3.71875 c 0.19771,0.19101 0.44055,0.28124 0.75,0.28125 l 1,0 0,-1 0,-1 4,0 0,-2 0,-2 -4,0 0,-1 0,-1 -1,0 z"/><path style="color:#000;font-style:normal;font-variant:normal;font-weight:400;font-stretch:normal;font-size:medium;line-height:normal;font-family:Sans;-inkscape-font-specification:Sans;text-indent:0;text-align:start;text-decoration:none;text-decoration-line:none;letter-spacing:normal;word-spacing:normal;text-transform:none;direction:ltr;block-progression:tb;writing-mode:lr-tb;baseline-shift:baseline;text-anchor:start;display:inline;overflow:visible;visibility:visible;opacity:.5;fill:#ececec;fill-opacity:1;stroke:none;stroke-width:1.99999976;marker:none;enable-background:accumulate" id="path16191" d="m 334.00046,175 0,1 0,1 -4,0 0,2 0,2 4,0 0,1 0,1 1,0 c 0.30943,-4e-5 0.61463,-0.0905 0.8125,-0.28125 L 339.40671,179 l -3.65625,-3.71875 c -0.19771,-0.19101 -0.44055,-0.28124 -0.75,-0.28125 l -1,0 z"/></g></svg>