<svg xmlns="http://www.w3.org/2000/svg" xmlns:svg="http://www.w3.org/2000/svg" id="svg7384" width="22" height="22" version="1.1"><metadata id="metadata90"/><title id="title9167">Gnome Symbolic Icon Theme</title><g id="layer9" transform="translate(-141.0002,-251)" style="display:inline"><path id="rect4162" d="m 144.0222,262.9999 0,3 0,3 1,0 2,0 0,-3 -2,0 0,-3 -1,0 z" style="color:#bebebe;display:inline;overflow:visible;visibility:visible;opacity:.35;fill:#ececec;fill-opacity:1;fill-rule:nonzero;stroke:none;stroke-width:3;marker:none"/><path id="rect4162-9" d="m 156.0001,254.022 0,7 2,0 0,5 -2,0 0,3 3,0 0,-3 0,-5 0,-1 0,-6 -3,0 z" style="color:#bebebe;display:inline;overflow:visible;visibility:visible;opacity:.35;fill:#ececec;fill-opacity:1;fill-rule:nonzero;stroke:none;stroke-width:3;marker:none"/><path id="rect4162-92" d="m 148.0001,265.9999 0,3 3,0 0,-3 -3,0 z" style="color:#bebebe;display:inline;overflow:visible;visibility:visible;opacity:.35;fill:#ececec;fill-opacity:1;fill-rule:nonzero;stroke:none;stroke-width:3;marker:none"/><path id="rect4162-92-3" d="m 152.0001,265.9999 0,3 3,0 0,-3 -3,0 z" style="color:#bebebe;display:inline;overflow:visible;visibility:visible;opacity:.35;fill:#ececec;fill-opacity:1;fill-rule:nonzero;stroke:none;stroke-width:3;marker:none"/><path id="rect4162-92-5" d="m 148.0001,259.9999 0,1 3,0 0,-1 -3,0 z" style="color:#bebebe;display:inline;overflow:visible;visibility:visible;opacity:.35;fill:#ececec;fill-opacity:1;fill-rule:nonzero;stroke:none;stroke-width:3;marker:none"/><path id="rect4162-92-3-0" d="m 152.0001,256.9999 0,4 3,0 0,-4 -3,0 z" style="color:#bebebe;display:inline;overflow:visible;visibility:visible;opacity:.35;fill:#ececec;fill-opacity:1;fill-rule:nonzero;stroke:none;stroke-width:3;marker:none"/><circle id="path4955-3" cx="147.5" cy="263.5" r="1.5" style="display:inline;fill:#ececec;fill-opacity:1;stroke:none"/><circle id="path4957-3" cx="151.5" cy="263.5" r="1.5" style="display:inline;fill:#ececec;fill-opacity:1;stroke:none"/><circle id="path4959-7" cx="155.5" cy="263.5" r="1.5" style="display:inline;fill:#ececec;fill-opacity:1;stroke:none"/></g></svg>