<svg xmlns="http://www.w3.org/2000/svg" xmlns:svg="http://www.w3.org/2000/svg" id="svg7384" width="22" height="22" version="1.1"><metadata id="metadata90"/><title id="title9167">Gnome Symbolic Icon Theme</title><g id="layer9" transform="translate(-61.0002,-251)" style="display:inline"><path id="path3290" d="m 76.0002,254 0,1.5 0,12 0,1.5 3,0 0,-1.5 0,-12 0,-1.5 -3,0 z" style="color:#000;font-style:normal;font-variant:normal;font-weight:400;font-stretch:normal;font-size:medium;line-height:normal;font-family:Sans;-inkscape-font-specification:Sans;text-indent:0;text-align:start;text-decoration:none;text-decoration-line:none;letter-spacing:normal;word-spacing:normal;text-transform:none;direction:ltr;block-progression:tb;writing-mode:lr-tb;baseline-shift:baseline;text-anchor:start;display:inline;overflow:visible;visibility:visible;opacity:.35;fill:#ececec;fill-opacity:1;fill-rule:evenodd;stroke:none;stroke-width:3;marker:none;enable-background:accumulate"/><path id="path3292" d="m 72.0002,257 0,1.5 0,9 0,1.5 3,0 0,-1.5 0,-9 0,-1.5 -3,0 z" style="color:#000;font-style:normal;font-variant:normal;font-weight:400;font-stretch:normal;font-size:medium;line-height:normal;font-family:Sans;-inkscape-font-specification:Sans;text-indent:0;text-align:start;text-decoration:none;text-decoration-line:none;letter-spacing:normal;word-spacing:normal;text-transform:none;direction:ltr;block-progression:tb;writing-mode:lr-tb;baseline-shift:baseline;text-anchor:start;display:inline;overflow:visible;visibility:visible;fill:#ececec;fill-opacity:1;fill-rule:evenodd;stroke:none;stroke-width:3;marker:none;enable-background:accumulate"/><path id="path3294" d="m 68.0002,260 0,1.5 0,6 0,1.5 3,0 0,-1.5 0,-6 0,-1.5 -3,0 z" style="color:#000;font-style:normal;font-variant:normal;font-weight:400;font-stretch:normal;font-size:medium;line-height:normal;font-family:Sans;-inkscape-font-specification:Sans;text-indent:0;text-align:start;text-decoration:none;text-decoration-line:none;letter-spacing:normal;word-spacing:normal;text-transform:none;direction:ltr;block-progression:tb;writing-mode:lr-tb;baseline-shift:baseline;text-anchor:start;display:inline;overflow:visible;visibility:visible;fill:#ececec;fill-opacity:1;fill-rule:evenodd;stroke:none;stroke-width:3;marker:none;enable-background:accumulate"/><path id="path3296" d="m 64.0002,263 0,1.5 0,3 0,1.5 3,0 0,-1.5 0,-3 0,-1.5 -3,0 z" style="color:#000;font-style:normal;font-variant:normal;font-weight:400;font-stretch:normal;font-size:medium;line-height:normal;font-family:Sans;-inkscape-font-specification:Sans;text-indent:0;text-align:start;text-decoration:none;text-decoration-line:none;letter-spacing:normal;word-spacing:normal;text-transform:none;direction:ltr;block-progression:tb;writing-mode:lr-tb;baseline-shift:baseline;text-anchor:start;display:inline;overflow:visible;visibility:visible;fill:#ececec;fill-opacity:1;fill-rule:evenodd;stroke:none;stroke-width:3;marker:none;enable-background:accumulate"/></g></svg>