<svg xmlns="http://www.w3.org/2000/svg" xmlns:svg="http://www.w3.org/2000/svg" id="svg7384" width="16" height="16" version="1.1"><metadata id="metadata90"/><title id="title9167">Gnome Symbolic Icon Theme</title><g id="layer11" transform="translate(-83.0002,-669)"><path id="path18806-9" d="m 94.983734,679.92188 a 1.984375,1.984375 0 0 1 -1.984375,1.98437 1.984375,1.984375 0 0 1 -1.984375,-1.98437 1.984375,1.984375 0 0 1 1.984375,-1.98438 1.984375,1.984375 0 0 1 1.984375,1.98438 z" style="color:#000;fill:#bebebe;fill-opacity:1;fill-rule:nonzero;stroke:none;stroke-width:.99999994;marker:none;visibility:visible;display:inline;overflow:visible;enable-background:new"/><path id="path11089" d="m 84.5,679 a 1.0001,1.0001 0 1 0 0,2 l 13,0 a 1.0001,1.0001 0 1 0 0,-2 l -13,0 z" style="font-size:medium;font-style:normal;font-variant:normal;font-weight:400;font-stretch:normal;text-indent:0;text-align:start;text-decoration:none;line-height:normal;letter-spacing:normal;word-spacing:normal;text-transform:none;direction:ltr;block-progression:tb;writing-mode:lr-tb;text-anchor:start;baseline-shift:baseline;color:#000;color-interpolation:sRGB;color-interpolation-filters:linearRGB;fill:#bebebe;fill-opacity:1;stroke:none;stroke-width:2;paint-order:normal;marker:none;visibility:visible;display:inline;overflow:visible;isolation:auto;mix-blend-mode:normal;enable-background:accumulate;clip-rule:nonzero;color-rendering:auto;image-rendering:auto;shape-rendering:auto;text-rendering:auto;font-family:sans-serif;-inkscape-font-specification:sans-serif"/><path id="path11091" d="m 84.03145,675.96875 13.9375,0 0,-3.9375 z" style="fill:#bebebe;fill-opacity:1;stroke:none"/></g></svg>