<svg xmlns="http://www.w3.org/2000/svg" xmlns:svg="http://www.w3.org/2000/svg" id="svg7384" width="16" height="16" version="1.1"><metadata id="metadata90"/><title id="title9167">Gnome Symbolic Icon Theme</title><g id="layer12" transform="translate(-101.0002,-787)" style="display:inline"><path id="path5670" d="m 103.0002,791 c -0.5,0 -1,0.5 -1,1 l 0,4 c 0,0.5 0.5,1 1,1 l 1,0 0,-2 10,0 0,2 1,0 c 0.5,0 1,-0.5 1,-1 l 0,-4 c 0,-0.5 -0.5,-1 -1,-1 l -12,0 z" style="fill:#bebebe;fill-opacity:1;stroke:none"/><path id="path5672" d="m 105.0002,788 0,2 8,0 0,-2 -8,0 z" style="fill:#bebebe;fill-opacity:1;stroke:none"/><path id="path5674" d="m 105.0002,796 0,5 8,0 0,-5 z" style="fill:#bebebe;fill-opacity:1;stroke:none"/></g></svg>