<svg xmlns="http://www.w3.org/2000/svg" xmlns:svg="http://www.w3.org/2000/svg" id="svg7384" width="16" height="16" version="1.1"><metadata id="metadata90"/><title id="title9167">Gnome Symbolic Icon Theme</title><g id="layer12" transform="translate(-281,-727)" style="display:inline"><path id="path27294" d="m 285.0002,728 0,2 8,0 0,-2 z m -2,3 c -0.5,0 -1,0.5 -1,1 l 0,4 c 0,0.5 0.5,1 1,1 l 1,0 0,-2 5.125,0 c 0.66316,-0.63263 1.55072,-1.03125 2.53125,-1.03125 1.78152,0 3.29058,1.27976 3.625,2.96875 0.39274,-0.13746 0.71875,-0.53064 0.71875,-0.9375 l 0,-4 c 0,-0.5 -0.5,-1 -1,-1 z m 2,5 0,5 5.09375,0 c -1.25368,-0.5913 -2.125,-1.87524 -2.125,-3.34375 0,-0.59537 0.15156,-1.15644 0.40625,-1.65625 z" style="fill:#bebebe;fill-opacity:1;stroke:none"/><path id="path27332" d="m 291.65645,734.9375 c -1.4956,0 -2.71875,1.22315 -2.71875,2.71875 0,1.4956 1.22315,2.71875 2.71875,2.71875 0.4871,0 0.94729,-0.14835 1.34375,-0.375 a 0.750075,0.750075 0 0 0 0.15625,0.21875 l 1.84375,1.8125 a 0.75130096,0.75130096 0 1 0 1.0625,-1.0625 l -1.84375,-1.8125 A 0.750075,0.750075 0 0 0 294.0002,739 c 0.22665,-0.39646 0.375,-0.85664 0.375,-1.34375 0,-1.4956 -1.22315,-2.71875 -2.71875,-2.71875 z m 0,1 c 0.95516,0 1.71875,0.76359 1.71875,1.71875 0,0.95516 -0.76359,1.71875 -1.71875,1.71875 -0.95516,0 -1.71875,-0.76359 -1.71875,-1.71875 0,-0.95516 0.76359,-1.71875 1.71875,-1.71875 z" style="font-size:medium;font-style:normal;font-variant:normal;font-weight:400;font-stretch:normal;text-indent:0;text-align:start;text-decoration:none;line-height:normal;letter-spacing:normal;word-spacing:normal;text-transform:none;direction:ltr;block-progression:tb;writing-mode:lr-tb;text-anchor:start;baseline-shift:baseline;color:#000;fill:#bebebe;fill-opacity:1;stroke:none;stroke-width:1;marker:none;visibility:visible;display:inline;overflow:visible;enable-background:new;font-family:Sans;-inkscape-font-specification:Sans"/></g></svg>