<svg xmlns="http://www.w3.org/2000/svg" xmlns:svg="http://www.w3.org/2000/svg" id="svg2" width="16" height="16" version="1.0"><metadata id="metadata7"/><g id="layer3" transform="translate(-3,-2.9995677)" style="display:inline"><path style="color:#000;fill:#bebebe;fill-opacity:1;fill-rule:nonzero;stroke:none;stroke-width:.80000000999999998;marker:none;visibility:visible;display:inline;overflow:visible;enable-background:accumulate" id="path3842" d="m 12,3.9995677 0,6 6,0 -2,-2 2,-2 -2,-2 -2,2 -2,-2 z m -6.5,6 c -0.831,0 -1.5,0.6690003 -1.5,1.5000003 l 0,6.5 8,0 0,-6.5 c 0,-0.831 -0.669,-1.5000003 -1.5,-1.5000003 l -5,0 z m 4.5,1.0000003 1,0 0,1 -1,0 0,-1 z m -4,2 4,0 0,3 -4,0 0,-3 z"/></g></svg>